<?xml version="1.0" encoding="UTF-8"?>
<svg width="197pt" version="1.1" xmlns="http://www.w3.org/2000/svg" height="48pt" viewBox="0 0 197 48" xmlns:xlink="http://www.w3.org/1999/xlink">
 <defs>
  <clipPath id="Clip0">
   <path d="M0 0 L0 47.7773 L196.645 47.7773 L196.645 0 L0 0 Z" transform="translate(0, 0.222656)"/>
  </clipPath>
 </defs>
 <g id="Background">
  <g id="Group1" clip-path="url(#Clip0)">
   <path style="fill:#ef7b00; fill-rule:nonzero;stroke:none;" d="M0 0 L0 44.4297 L17.3828 44.4434 L17.3994 29.1504 L29.4239 44.4297 L44.8604 44.4297 L44.8604 0 L27.3086 0 L27.3086 15.1153 L16.7989 0 L0 0 Z" transform="translate(54.8281, 3.45703)"/>
   <path style="fill:#ef7b00; fill-rule:nonzero;stroke:none;" d="M17.551 14.836 L17.551 29.0567 C17.551 29.0567 20.815 29.0782 22.053 29.0782 C30.825 29.0782 30.918 14.8086 22.274 14.8086 C17.247 14.8086 17.551 14.836 17.551 14.836 Z M0 44.6348 L0 0 L24.397 0 C52.188 0 52.811 44.6348 22.373 44.6348 L0 44.6348 Z" transform="translate(105.086, 3.36523)"/>
   <path style="fill:#ef7b00; fill-rule:nonzero;stroke:none;" d="M17.578 12.1328 L17.578 23.0761 C17.578 23.0761 22.814 23.0761 23.164 23.0761 C29.683 23.0761 29.218 12.1016 23.164 12.1016 C21.687 12.1016 17.578 12.1328 17.578 12.1328 Z M23.359 0.00781 C50.21 0.00781 50.169 35.4667 23.322 35.4667 C22.464 35.4667 17.591 35.4785 17.591 35.4785 L17.578 44.4472 L0 44.4472 L0.083 0 C0.083 0 16.917 0.00781 23.359 0.00781 Z" transform="translate(153.167, 3.34375)"/>
   <path style="fill:#ef7b00; fill-rule:nonzero;stroke:none;" d="M49.0302 23.7803 C49.2724 23.4824 49.288 23.1025 48.9599 23.1269 C47.8759 23.2129 43.0078 23.3906 41.6162 23.501 C41.5507 23.5049 41.3379 23.4053 41.3349 23.2568 C41.3086 22.3613 41.539 18.6064 41.5302 17.8349 C41.5293 17.4932 41.333 17.249 41.0498 17.4189 C39.497 18.3574 34.8339 22.9844 33.1289 23.1318 C32.6806 23.1699 32.4463 22.8613 32.3515 22.7617 C31.4336 21.8017 34.1337 12.7656 34.5966 10.2607 C34.7207 9.57812 34.3476 9.47949 33.8447 9.66309 C31.8183 10.4053 31.9033 10.3613 30.666 10.7842 C30.3828 10.8779 29.8281 10.956 29.6582 10.6182 C28.7841 8.85254 27.0966 1.78223 26.6806 0.892578 C26.2656 0 25.955 0.225586 25.7129 0.645508 C24.9795 1.92383 22.4375 6.41894 22.2177 6.83691 C21.9218 7.40527 21.5214 8.05371 20.83 7.71582 C19.4345 7.20019 18.6543 6.72559 16.9004 5.81738 C16.3496 5.53223 15.8496 5.47656 15.997 6.11523 C16.5009 8.28613 19.8056 18.0273 19.1504 19.8369 C19.0078 20.2324 18.0244 20.7568 17.3935 20.3525 C16.9004 20.0342 11.7334 14.3867 11.1504 13.7822 C10.8466 13.4678 10.3789 13.2568 10.2949 13.8154 C10.2002 14.4473 9.73731 16.792 9.49609 17.8603 C9.39844 18.291 9.21387 18.543 8.75781 18.4443 C8.50391 18.3877 2.4707 16.6846 2.08106 16.5908 C1.27734 16.3975 1.14258 16.8662 1.5166 17.4658 C3.29395 20.3262 4.47266 21.9746 4.92774 23.3838 C5.05762 23.7793 4.80274 24.1465 4.41895 24.3369 C3.27442 24.916 1.69141 25.4853 0.71875 25.8838 C0 26.1767 0.15332 26.7978 0.644531 26.9805 C6.73145 29.4912 17.7988 31.9697 14.7099 34.6328 C14.2548 34.9824 12.5048 36.0771 11.8252 37.8174 C11.706 38.124 11.6269 38.499 12.2353 38.3877 C16.2705 37.667 20.2119 38.4033 23.9091 39.4111 L23.7802 47.9717 L26.5175 47.9541 L26.4589 40.1455 C27.3017 40.3994 28.1337 40.6514 28.9453 40.8877 C31.5996 41.6631 34.8388 42.4365 37.0752 41.5264 C37.3242 41.4404 37.3125 41.0498 36.8252 40.7217 C35.6171 39.5439 34.8418 37.8447 36.1738 37.0342 C37.581 35.6728 46.1464 33.5351 47.083 33.331 C47.5117 33.2353 47.2285 32.8076 47.1084 32.6738 C46.5839 32.0889 45.6709 31.1699 44.6298 29.9092 C44.5371 29.7978 44.5087 29.5879 44.6425 29.376 C45.2226 28.6484 46.4931 26.8799 49.0302 23.7803 Z" transform="translate(-0.227539, -0.0537109)"/>
  </g>
 </g>
</svg>
